<?xml version="1.0" encoding="UTF-8"?>
<svg xmlns="http://www.w3.org/2000/svg" xmlns:xlink="http://www.w3.org/1999/xlink" width="250px" height="55px" viewBox="0 0 249 55" version="1.1">
<g id="surface1">
<path style=" stroke:none;fill-rule:nonzero;fill:rgb(66.27451%,66.27451%,66.27451%);fill-opacity:1;" d="M 9.445312 0 L 77.625 0 C 82.613281 0 86.65625 4.046875 86.65625 9.042969 L 86.65625 45.957031 C 86.65625 50.953125 82.613281 55 77.625 55 L 9.445312 55 C 4.457031 55 0.410156 50.953125 0.410156 45.957031 L 0.410156 9.042969 C 0.410156 4.046875 4.457031 0 9.445312 0 Z M 9.445312 0 "/>
<path style=" stroke:none;fill-rule:nonzero;fill:rgb(0%,0%,0%);fill-opacity:1;" d="M 18.488281 19.902344 L 18.675781 19.402344 L 25.277344 19.402344 C 26.382812 19.402344 27.371094 19.578125 28.242188 19.925781 C 29.117188 20.277344 29.757812 20.753906 30.199219 21.371094 C 30.640625 21.988281 30.851562 22.640625 30.851562 23.339844 C 30.851562 24.402344 30.46875 25.367188 29.699219 26.230469 C 28.929688 27.09375 27.671875 27.722656 25.9375 28.128906 C 27.054688 28.546875 27.882812 29.109375 28.40625 29.796875 C 28.929688 30.484375 29.199219 31.253906 29.199219 32.078125 C 29.199219 33 28.964844 33.875 28.488281 34.714844 C 28.011719 35.550781 27.40625 36.203125 26.671875 36.671875 C 25.9375 37.136719 25.042969 37.472656 23.996094 37.695312 C 23.25 37.847656 22.085938 37.929688 20.503906 37.929688 L 13.726562 37.929688 L 13.902344 37.429688 C 14.613281 37.40625 15.089844 37.347656 15.347656 37.21875 C 15.707031 37.066406 15.976562 36.855469 16.125 36.601562 C 16.347656 36.25 16.636719 35.457031 17 34.222656 L 20.316406 23.015625 C 20.597656 22.070312 20.734375 21.40625 20.734375 21.019531 C 20.734375 20.683594 20.609375 20.414062 20.363281 20.21875 C 20.117188 20.019531 19.640625 19.925781 18.941406 19.925781 C 18.792969 19.925781 18.640625 19.925781 18.5 19.914062 Z M 18.570312 36.71875 C 19.546875 36.84375 20.316406 36.902344 20.875 36.902344 C 22.296875 36.902344 23.550781 36.472656 24.648438 35.621094 C 25.742188 34.769531 26.289062 33.605469 26.289062 32.136719 C 26.289062 31.019531 25.949219 30.144531 25.277344 29.515625 C 24.601562 28.886719 23.507812 28.570312 21.992188 28.570312 C 21.703125 28.570312 21.351562 28.582031 20.933594 28.617188 Z M 21.257812 27.59375 C 21.851562 27.617188 22.285156 27.617188 22.539062 27.617188 C 24.425781 27.617188 25.835938 27.207031 26.765625 26.382812 C 27.695312 25.554688 28.152344 24.527344 28.152344 23.292969 C 28.152344 22.359375 27.871094 21.628906 27.300781 21.101562 C 26.730469 20.578125 25.835938 20.320312 24.601562 20.320312 C 24.273438 20.320312 23.855469 20.378906 23.34375 20.484375 L 21.257812 27.605469 Z M 21.257812 27.59375 "/>
<path style=" stroke:none;fill-rule:nonzero;fill:rgb(0%,0%,0%);fill-opacity:1;" d="M 47.03125 37.917969 L 33.320312 37.917969 L 33.503906 37.417969 C 34.226562 37.394531 34.714844 37.335938 34.960938 37.242188 C 35.34375 37.078125 35.625 36.867188 35.808594 36.601562 C 36.089844 36.179688 36.390625 35.421875 36.707031 34.328125 L 39.964844 23.058594 C 40.234375 22.128906 40.375 21.453125 40.375 21.007812 C 40.375 20.660156 40.246094 20.390625 40 20.207031 C 39.757812 20.019531 39.277344 19.914062 38.59375 19.914062 C 38.441406 19.914062 38.3125 19.914062 38.21875 19.902344 L 38.382812 19.402344 L 45.925781 19.402344 L 45.820312 19.902344 C 44.972656 19.902344 44.378906 19.984375 44.015625 20.148438 C 43.65625 20.308594 43.363281 20.578125 43.132812 20.953125 C 42.96875 21.195312 42.703125 21.964844 42.328125 23.246094 L 39.128906 34.316406 C 38.882812 35.15625 38.753906 35.738281 38.753906 36.066406 C 38.753906 36.285156 38.882812 36.496094 39.128906 36.695312 C 39.277344 36.832031 39.628906 36.902344 40.175781 36.902344 L 41.96875 36.902344 C 43.273438 36.902344 44.296875 36.742188 45.066406 36.414062 C 45.625 36.167969 46.148438 35.796875 46.625 35.308594 C 46.878906 35.039062 47.335938 34.351562 47.976562 33.269531 L 48.324219 32.652344 L 48.824219 32.652344 L 47.019531 37.90625 Z M 47.03125 37.917969 "/>
<path style=" stroke:none;fill-rule:nonzero;fill:rgb(0%,0%,0%);fill-opacity:1;" d="M 72.210938 18.96875 L 70.835938 24.960938 L 70.347656 24.960938 L 70.289062 23.457031 C 70.242188 22.910156 70.136719 22.417969 69.976562 22 C 69.8125 21.582031 69.566406 21.195312 69.242188 20.882812 C 68.917969 20.566406 68.496094 20.320312 67.996094 20.148438 C 67.496094 19.972656 66.9375 19.878906 66.332031 19.878906 C 64.703125 19.878906 63.28125 20.320312 62.058594 21.21875 C 60.5 22.359375 59.289062 23.96875 58.40625 26.042969 C 57.683594 27.757812 57.308594 29.492188 57.308594 31.253906 C 57.308594 33.011719 57.835938 34.480469 58.882812 35.550781 C 59.929688 36.625 61.292969 37.160156 62.957031 37.160156 C 64.226562 37.160156 65.34375 36.878906 66.332031 36.308594 C 67.320312 35.738281 68.230469 34.875 69.078125 33.699219 L 69.71875 33.699219 C 68.71875 35.296875 67.613281 36.460938 66.390625 37.21875 C 65.167969 37.976562 63.710938 38.347656 62.011719 38.347656 C 60.5 38.347656 59.160156 38.035156 57.996094 37.40625 C 56.832031 36.777344 55.949219 35.878906 55.332031 34.734375 C 54.714844 33.59375 54.410156 32.359375 54.410156 31.03125 C 54.410156 29.015625 54.949219 27.046875 56.03125 25.132812 C 57.113281 23.222656 58.601562 21.71875 60.488281 20.625 C 62.375 19.53125 64.28125 18.980469 66.191406 18.980469 C 67.089844 18.980469 68.101562 19.191406 69.21875 19.621094 C 69.707031 19.808594 70.070312 19.890625 70.277344 19.890625 C 70.488281 19.890625 70.683594 19.84375 70.847656 19.75 C 71.011719 19.65625 71.289062 19.402344 71.664062 18.96875 Z M 72.210938 18.96875 "/>
<path style=" stroke:none;fill-rule:nonzero;fill:rgb(0%,0%,0%);fill-opacity:1;" d="M 100.519531 25.066406 L 103.6875 25.066406 C 104.398438 25.066406 104.898438 25.097656 105.199219 25.179688 C 105.59375 25.273438 105.910156 25.460938 106.121094 25.730469 C 106.339844 25.996094 106.445312 26.3125 106.445312 26.660156 C 106.445312 26.941406 106.363281 27.230469 106.1875 27.535156 C 106.015625 27.828125 105.757812 28.070312 105.410156 28.269531 C 105.058594 28.46875 104.535156 28.640625 103.828125 28.792969 C 104.570312 29.003906 105.082031 29.269531 105.363281 29.597656 C 105.652344 29.921875 105.792969 30.308594 105.792969 30.738281 C 105.792969 31.148438 105.652344 31.542969 105.363281 31.941406 C 105.082031 32.335938 104.699219 32.628906 104.234375 32.8125 C 103.769531 33 102.90625 33.09375 101.660156 33.09375 L 98.332031 33.09375 L 98.414062 32.871094 C 98.738281 32.871094 98.972656 32.835938 99.113281 32.777344 C 99.25 32.71875 99.367188 32.628906 99.449219 32.5 C 99.53125 32.371094 99.636719 32.113281 99.753906 31.71875 L 101.183594 26.789062 C 101.324219 26.289062 101.40625 25.949219 101.40625 25.785156 C 101.40625 25.648438 101.347656 25.53125 101.230469 25.449219 C 101.113281 25.355469 100.859375 25.308594 100.472656 25.285156 L 100.53125 25.066406 Z M 102.195312 29.050781 L 101.171875 32.617188 C 101.371094 32.617188 101.519531 32.628906 101.613281 32.628906 C 102.488281 32.628906 103.105469 32.382812 103.441406 31.894531 C 103.78125 31.402344 103.953125 30.878906 103.953125 30.320312 C 103.953125 30.050781 103.882812 29.820312 103.757812 29.609375 C 103.628906 29.398438 103.453125 29.257812 103.246094 29.179688 C 103.035156 29.097656 102.683594 29.0625 102.183594 29.0625 Z M 102.335938 28.605469 C 102.871094 28.605469 103.289062 28.515625 103.605469 28.351562 C 103.917969 28.1875 104.164062 27.917969 104.351562 27.558594 C 104.535156 27.183594 104.628906 26.847656 104.628906 26.507812 C 104.628906 26.207031 104.535156 25.949219 104.339844 25.765625 C 104.140625 25.566406 103.882812 25.472656 103.570312 25.484375 L 103.246094 25.484375 Z M 102.335938 28.605469 "/>
<path style=" stroke:none;fill-rule:nonzero;fill:rgb(0%,0%,0%);fill-opacity:1;" d="M 112.824219 30.507812 L 110.34375 30.507812 L 109.84375 31.125 L 109.273438 31.800781 C 109.167969 31.941406 109.085938 32.078125 109.03125 32.195312 C 108.996094 32.289062 108.972656 32.382812 108.972656 32.464844 C 108.972656 32.558594 109.019531 32.652344 109.121094 32.730469 C 109.226562 32.8125 109.390625 32.859375 109.625 32.871094 L 109.625 33.09375 L 107.238281 33.09375 L 107.296875 32.871094 C 107.503906 32.835938 107.691406 32.765625 107.867188 32.652344 C 108.085938 32.5 108.402344 32.171875 108.820312 31.671875 L 114.5 24.890625 L 114.769531 24.890625 L 114.5 31.449219 C 114.488281 31.789062 114.476562 31.996094 114.476562 32.066406 C 114.476562 32.335938 114.535156 32.535156 114.640625 32.652344 C 114.746094 32.765625 114.929688 32.847656 115.175781 32.859375 L 115.117188 33.082031 L 111.648438 33.082031 L 111.71875 32.859375 C 112.054688 32.824219 112.253906 32.800781 112.3125 32.777344 C 112.417969 32.71875 112.523438 32.605469 112.613281 32.429688 C 112.707031 32.253906 112.765625 31.953125 112.777344 31.519531 L 112.835938 30.496094 Z M 112.824219 30.015625 L 112.976562 27.40625 L 110.753906 30.015625 Z M 112.824219 30.015625 "/>
<path style=" stroke:none;fill-rule:nonzero;fill:rgb(0%,0%,0%);fill-opacity:1;" d="M 124.253906 24.890625 L 123.59375 27.605469 L 123.394531 27.605469 C 123.347656 27.171875 123.277344 26.835938 123.160156 26.578125 C 123 26.207031 122.777344 25.925781 122.496094 25.71875 C 122.230469 25.519531 121.925781 25.414062 121.613281 25.414062 C 121.300781 25.414062 121.042969 25.53125 120.808594 25.765625 C 120.578125 25.996094 120.460938 26.265625 120.460938 26.554688 C 120.460938 26.847656 120.542969 27.140625 120.707031 27.417969 C 120.867188 27.699219 121.242188 28.128906 121.835938 28.6875 C 122.3125 29.144531 122.625 29.527344 122.789062 29.855469 C 122.953125 30.179688 123.035156 30.53125 123.035156 30.914062 C 123.035156 31.34375 122.917969 31.742188 122.695312 32.101562 C 122.464844 32.464844 122.136719 32.742188 121.707031 32.941406 C 121.277344 33.140625 120.773438 33.246094 120.226562 33.246094 C 119.890625 33.246094 119.460938 33.199219 118.949219 33.09375 C 118.433594 32.988281 118.097656 32.941406 117.921875 32.941406 C 117.785156 32.941406 117.667969 32.964844 117.5625 33 C 117.457031 33.046875 117.328125 33.117188 117.167969 33.246094 L 116.933594 33.246094 L 117.644531 30.191406 L 117.863281 30.191406 C 117.910156 30.726562 118.027344 31.183594 118.191406 31.554688 C 118.355469 31.929688 118.585938 32.21875 118.902344 32.441406 C 119.203125 32.652344 119.554688 32.753906 119.949219 32.753906 C 120.34375 32.753906 120.660156 32.628906 120.925781 32.371094 C 121.183594 32.113281 121.320312 31.8125 121.320312 31.460938 C 121.320312 31.171875 121.253906 30.878906 121.101562 30.609375 C 120.949219 30.34375 120.613281 29.945312 120.089844 29.421875 C 119.5625 28.898438 119.203125 28.433594 118.992188 28.023438 C 118.855469 27.722656 118.773438 27.394531 118.773438 27.058594 C 118.773438 26.464844 119.003906 25.949219 119.472656 25.519531 C 119.9375 25.089844 120.554688 24.867188 121.308594 24.867188 C 121.648438 24.867188 122.101562 24.949219 122.660156 25.097656 C 122.988281 25.191406 123.21875 25.238281 123.347656 25.238281 C 123.464844 25.238281 123.570312 25.214844 123.648438 25.167969 C 123.742188 25.121094 123.847656 25.019531 123.964844 24.878906 L 124.21875 24.878906 Z M 124.253906 24.890625 "/>
<path style=" stroke:none;fill-rule:nonzero;fill:rgb(0%,0%,0%);fill-opacity:1;" d="M 126.804688 25.285156 L 126.875 25.066406 L 130.785156 25.066406 L 130.703125 25.285156 C 130.355469 25.285156 130.074219 25.367188 129.890625 25.519531 C 129.703125 25.683594 129.539062 26.007812 129.402344 26.507812 L 127.933594 31.636719 C 127.828125 31.996094 127.769531 32.242188 127.769531 32.359375 C 127.769531 32.5 127.828125 32.617188 127.933594 32.683594 C 128.074219 32.789062 128.339844 32.847656 128.738281 32.847656 L 128.679688 33.070312 L 124.710938 33.070312 L 124.78125 32.847656 C 125.175781 32.847656 125.464844 32.765625 125.652344 32.617188 C 125.839844 32.464844 126 32.125 126.152344 31.613281 L 127.632812 26.484375 C 127.722656 26.171875 127.769531 25.925781 127.769531 25.777344 C 127.769531 25.636719 127.710938 25.519531 127.609375 25.4375 C 127.503906 25.355469 127.234375 25.296875 126.816406 25.273438 Z M 126.804688 25.285156 "/>
<path style=" stroke:none;fill-rule:nonzero;fill:rgb(0%,0%,0%);fill-opacity:1;" d="M 139.773438 24.890625 L 139.179688 27.441406 L 138.945312 27.441406 C 138.921875 26.742188 138.75 26.230469 138.433594 25.890625 C 138.121094 25.554688 137.710938 25.378906 137.210938 25.378906 C 136.664062 25.378906 136.128906 25.613281 135.59375 26.078125 C 135.058594 26.542969 134.59375 27.253906 134.21875 28.210938 C 133.917969 28.992188 133.765625 29.75 133.765625 30.507812 C 133.765625 31.183594 133.929688 31.707031 134.265625 32.054688 C 134.605469 32.417969 135.058594 32.59375 135.628906 32.59375 C 136.09375 32.59375 136.523438 32.488281 136.910156 32.289062 C 137.292969 32.078125 137.6875 31.753906 138.074219 31.285156 L 138.351562 31.285156 C 137.863281 32.019531 137.375 32.535156 136.875 32.824219 C 136.375 33.117188 135.769531 33.269531 135.046875 33.269531 C 134.082031 33.269531 133.300781 32.976562 132.71875 32.394531 C 132.125 31.8125 131.832031 31.042969 131.832031 30.097656 C 131.832031 29.214844 132.066406 28.375 132.53125 27.570312 C 132.996094 26.765625 133.671875 26.125 134.558594 25.625 C 135.441406 25.121094 136.316406 24.878906 137.1875 24.878906 C 137.515625 24.878906 137.933594 24.949219 138.421875 25.089844 C 138.679688 25.15625 138.851562 25.191406 138.945312 25.191406 C 139.144531 25.191406 139.339844 25.089844 139.539062 24.878906 L 139.761719 24.878906 Z M 139.773438 24.890625 "/>
<path style=" stroke:none;fill-rule:nonzero;fill:rgb(0%,0%,0%);fill-opacity:1;" d="M 150.574219 33.082031 L 144.183594 33.082031 L 144.253906 32.859375 C 144.636719 32.859375 144.917969 32.789062 145.09375 32.640625 C 145.265625 32.488281 145.429688 32.160156 145.582031 31.636719 L 147.070312 26.484375 C 147.152344 26.207031 147.199219 25.984375 147.199219 25.820312 C 147.199219 25.660156 147.140625 25.542969 147.023438 25.449219 C 146.90625 25.355469 146.675781 25.296875 146.324219 25.285156 L 146.394531 25.066406 L 150.238281 25.066406 L 150.167969 25.285156 C 149.796875 25.285156 149.515625 25.378906 149.339844 25.53125 C 149.167969 25.683594 148.992188 26.007812 148.851562 26.496094 L 147.488281 31.207031 C 147.316406 31.800781 147.234375 32.171875 147.234375 32.300781 C 147.234375 32.382812 147.28125 32.453125 147.363281 32.523438 C 147.457031 32.59375 147.59375 32.628906 147.792969 32.628906 C 148.445312 32.628906 149.074219 32.476562 149.691406 32.171875 C 150.308594 31.871094 150.808594 31.425781 151.238281 30.832031 L 151.484375 30.832031 L 150.597656 33.082031 Z M 150.574219 33.082031 "/>
<path style=" stroke:none;fill-rule:nonzero;fill:rgb(0%,0%,0%);fill-opacity:1;" d="M 158.058594 30.507812 L 155.582031 30.507812 L 155.078125 31.125 L 154.507812 31.800781 C 154.40625 31.941406 154.324219 32.078125 154.265625 32.195312 C 154.230469 32.289062 154.207031 32.382812 154.207031 32.464844 C 154.207031 32.558594 154.253906 32.652344 154.359375 32.730469 C 154.464844 32.8125 154.625 32.859375 154.859375 32.871094 L 154.859375 33.09375 L 152.472656 33.09375 L 152.53125 32.871094 C 152.738281 32.835938 152.9375 32.765625 153.101562 32.652344 C 153.320312 32.5 153.636719 32.171875 154.054688 31.671875 L 159.734375 24.890625 L 160.003906 24.890625 L 159.734375 31.449219 C 159.722656 31.789062 159.710938 31.996094 159.710938 32.066406 C 159.710938 32.335938 159.769531 32.535156 159.875 32.652344 C 159.980469 32.765625 160.167969 32.847656 160.410156 32.859375 L 160.351562 33.082031 L 156.882812 33.082031 L 156.953125 32.859375 C 157.292969 32.824219 157.488281 32.800781 157.546875 32.777344 C 157.652344 32.71875 157.757812 32.605469 157.851562 32.429688 C 157.945312 32.253906 157.988281 31.953125 158.011719 31.519531 L 158.070312 30.496094 Z M 158.058594 30.015625 L 158.210938 27.40625 L 155.988281 30.015625 Z M 158.058594 30.015625 "/>
<path style=" stroke:none;fill-rule:nonzero;fill:rgb(0%,0%,0%);fill-opacity:1;" d="M 164.3125 25.066406 L 167.476562 25.066406 C 168.1875 25.066406 168.6875 25.097656 168.992188 25.179688 C 169.386719 25.273438 169.699219 25.460938 169.910156 25.730469 C 170.132812 25.996094 170.234375 26.3125 170.234375 26.660156 C 170.234375 26.941406 170.144531 27.230469 169.980469 27.535156 C 169.804688 27.828125 169.550781 28.070312 169.199219 28.269531 C 168.851562 28.46875 168.328125 28.640625 167.617188 28.792969 C 168.363281 29.003906 168.875 29.269531 169.152344 29.597656 C 169.433594 29.921875 169.585938 30.308594 169.585938 30.738281 C 169.585938 31.148438 169.445312 31.542969 169.152344 31.941406 C 168.875 32.335938 168.488281 32.628906 168.023438 32.8125 C 167.558594 33 166.695312 33.09375 165.453125 33.09375 L 162.121094 33.09375 L 162.203125 32.871094 C 162.53125 32.871094 162.761719 32.835938 162.902344 32.777344 C 163.042969 32.71875 163.160156 32.628906 163.238281 32.5 C 163.320312 32.371094 163.425781 32.113281 163.542969 31.71875 L 164.972656 26.789062 C 165.125 26.289062 165.195312 25.949219 165.195312 25.785156 C 165.195312 25.648438 165.136719 25.53125 165.019531 25.449219 C 164.90625 25.355469 164.648438 25.308594 164.265625 25.285156 L 164.324219 25.066406 Z M 165.988281 29.050781 L 164.960938 32.617188 C 165.160156 32.617188 165.3125 32.628906 165.40625 32.628906 C 166.277344 32.628906 166.894531 32.382812 167.234375 31.894531 C 167.570312 31.402344 167.746094 30.878906 167.746094 30.320312 C 167.746094 30.050781 167.675781 29.820312 167.546875 29.609375 C 167.417969 29.398438 167.246094 29.257812 167.035156 29.179688 C 166.824219 29.097656 166.476562 29.0625 165.976562 29.0625 Z M 166.125 28.605469 C 166.664062 28.605469 167.082031 28.515625 167.394531 28.351562 C 167.710938 28.1875 167.953125 27.917969 168.140625 27.558594 C 168.328125 27.183594 168.421875 26.847656 168.421875 26.507812 C 168.421875 26.207031 168.328125 25.949219 168.128906 25.765625 C 167.929688 25.566406 167.675781 25.472656 167.347656 25.484375 L 167.023438 25.484375 L 166.113281 28.605469 Z M 166.125 28.605469 "/>
<path style=" stroke:none;fill-rule:nonzero;fill:rgb(0%,0%,0%);fill-opacity:1;" d="M 184.671875 24.890625 L 184.078125 27.441406 L 183.84375 27.441406 C 183.820312 26.742188 183.644531 26.230469 183.332031 25.890625 C 183.015625 25.554688 182.609375 25.378906 182.109375 25.378906 C 181.5625 25.378906 181.027344 25.613281 180.492188 26.078125 C 179.957031 26.542969 179.488281 27.253906 179.117188 28.210938 C 178.816406 28.992188 178.664062 29.75 178.664062 30.507812 C 178.664062 31.183594 178.828125 31.707031 179.164062 32.054688 C 179.5 32.417969 179.957031 32.59375 180.527344 32.59375 C 180.992188 32.59375 181.421875 32.488281 181.808594 32.289062 C 182.191406 32.078125 182.585938 31.753906 182.972656 31.285156 L 183.25 31.285156 C 182.761719 32.019531 182.273438 32.535156 181.773438 32.824219 C 181.269531 33.117188 180.664062 33.269531 179.945312 33.269531 C 178.976562 33.269531 178.199219 32.976562 177.617188 32.394531 C 177.023438 31.8125 176.730469 31.042969 176.730469 30.097656 C 176.730469 29.214844 176.964844 28.375 177.429688 27.570312 C 177.894531 26.765625 178.570312 26.125 179.457031 25.625 C 180.339844 25.121094 181.214844 24.878906 182.074219 24.878906 C 182.398438 24.878906 182.820312 24.949219 183.308594 25.089844 C 183.5625 25.15625 183.738281 25.191406 183.832031 25.191406 C 184.03125 25.191406 184.226562 25.089844 184.425781 24.878906 L 184.648438 24.878906 Z M 184.671875 24.890625 "/>
<path style=" stroke:none;fill-rule:nonzero;fill:rgb(0%,0%,0%);fill-opacity:1;" d="M 188.628906 33.28125 C 187.988281 33.28125 187.464844 33.152344 187.066406 32.882812 C 186.671875 32.617188 186.371094 32.253906 186.171875 31.800781 C 185.972656 31.34375 185.871094 30.902344 185.871094 30.460938 C 185.871094 29.585938 186.113281 28.699219 186.613281 27.816406 C 187.113281 26.929688 187.789062 26.21875 188.640625 25.683594 C 189.488281 25.144531 190.328125 24.878906 191.152344 24.878906 C 191.644531 24.878906 192.097656 24.996094 192.527344 25.238281 C 192.957031 25.484375 193.296875 25.820312 193.539062 26.265625 C 193.785156 26.707031 193.902344 27.140625 193.902344 27.59375 C 193.902344 28.59375 193.585938 29.585938 192.945312 30.589844 C 192.316406 31.589844 191.597656 32.3125 190.804688 32.765625 C 190.210938 33.105469 189.476562 33.269531 188.605469 33.269531 Z M 190.957031 25.367188 C 190.640625 25.367188 190.386719 25.425781 190.164062 25.53125 C 189.945312 25.648438 189.722656 25.832031 189.476562 26.089844 C 189.246094 26.359375 189 26.730469 188.757812 27.21875 C 188.511719 27.710938 188.277344 28.375 188.070312 29.222656 C 187.859375 30.0625 187.742188 30.773438 187.742188 31.332031 C 187.742188 31.8125 187.847656 32.171875 188.058594 32.429688 C 188.265625 32.671875 188.535156 32.800781 188.859375 32.800781 C 189.292969 32.800781 189.664062 32.660156 189.964844 32.371094 C 190.570312 31.800781 191.0625 30.960938 191.445312 29.855469 C 191.828125 28.746094 192.015625 27.769531 192.015625 26.90625 C 192.015625 26.371094 191.910156 25.972656 191.710938 25.730469 C 191.515625 25.484375 191.257812 25.367188 190.957031 25.367188 Z M 190.957031 25.367188 "/>
<path style=" stroke:none;fill-rule:nonzero;fill:rgb(0%,0%,0%);fill-opacity:1;" d="M 199.476562 25.066406 L 201.980469 30.414062 L 203.109375 26.53125 C 203.167969 26.324219 203.203125 26.125 203.203125 25.960938 C 203.203125 25.765625 203.144531 25.613281 203.015625 25.484375 C 202.886719 25.355469 202.679688 25.296875 202.375 25.273438 L 202.445312 25.054688 L 204.984375 25.054688 L 204.925781 25.273438 C 204.597656 25.296875 204.332031 25.378906 204.121094 25.542969 C 203.914062 25.707031 203.738281 26.03125 203.585938 26.519531 L 201.628906 33.164062 L 201.410156 33.164062 L 198.195312 26.335938 L 196.648438 31.660156 C 196.601562 31.847656 196.566406 32.007812 196.566406 32.160156 C 196.566406 32.371094 196.636719 32.546875 196.777344 32.671875 C 196.917969 32.800781 197.136719 32.871094 197.453125 32.871094 L 197.394531 33.09375 L 194.785156 33.09375 L 194.84375 32.871094 C 195.066406 32.871094 195.226562 32.847656 195.320312 32.8125 C 195.484375 32.753906 195.648438 32.628906 195.808594 32.453125 C 195.960938 32.277344 196.101562 32.007812 196.195312 31.671875 L 197.894531 25.84375 C 197.683594 25.613281 197.511719 25.460938 197.371094 25.390625 C 197.230469 25.320312 197.019531 25.285156 196.730469 25.285156 L 196.800781 25.066406 L 199.5 25.066406 Z M 199.476562 25.066406 "/>
<path style=" stroke:none;fill-rule:nonzero;fill:rgb(0%,0%,0%);fill-opacity:1;" d="M 207.054688 25.066406 L 213.503906 25.066406 L 212.898438 27.21875 L 212.6875 27.21875 C 212.6875 27.105469 212.6875 27.011719 212.6875 26.917969 C 212.6875 26.507812 212.574219 26.195312 212.328125 25.960938 C 212.082031 25.742188 211.6875 25.601562 211.117188 25.578125 L 209.335938 31.613281 C 209.242188 31.953125 209.183594 32.195312 209.183594 32.359375 C 209.183594 32.511719 209.242188 32.628906 209.371094 32.71875 C 209.5 32.8125 209.746094 32.859375 210.117188 32.859375 L 210.058594 33.082031 L 206.089844 33.082031 L 206.160156 32.859375 C 206.566406 32.859375 206.855469 32.777344 207.042969 32.628906 C 207.230469 32.476562 207.394531 32.136719 207.554688 31.601562 L 209.335938 25.566406 C 208.71875 25.589844 208.207031 25.71875 207.800781 25.972656 C 207.394531 26.21875 207.007812 26.636719 206.671875 27.207031 L 206.4375 27.207031 L 207.066406 25.054688 Z M 207.054688 25.066406 "/>
<path style=" stroke:none;fill-rule:nonzero;fill:rgb(0%,0%,0%);fill-opacity:1;" d="M 217.183594 29.167969 L 216.472656 31.589844 C 216.367188 31.929688 216.320312 32.183594 216.320312 32.347656 C 216.320312 32.5 216.378906 32.617188 216.507812 32.707031 C 216.636719 32.800781 216.878906 32.847656 217.265625 32.859375 L 217.183594 33.082031 L 213.328125 33.082031 L 213.398438 32.859375 C 213.785156 32.859375 214.0625 32.789062 214.25 32.640625 C 214.421875 32.488281 214.585938 32.148438 214.738281 31.636719 L 216.226562 26.496094 C 216.308594 26.207031 216.355469 25.984375 216.355469 25.820312 C 216.355469 25.660156 216.308594 25.542969 216.203125 25.460938 C 216.101562 25.378906 215.867188 25.320312 215.496094 25.296875 L 215.554688 25.078125 L 218.871094 25.078125 C 219.824219 25.078125 220.488281 25.238281 220.871094 25.578125 C 221.257812 25.902344 221.453125 26.335938 221.453125 26.859375 C 221.453125 27.40625 221.234375 27.894531 220.78125 28.339844 C 220.5 28.617188 220 28.851562 219.277344 29.050781 L 220 31.484375 C 220.199219 32.136719 220.359375 32.523438 220.5 32.660156 C 220.640625 32.800781 220.882812 32.871094 221.222656 32.882812 L 221.222656 33.105469 L 218.730469 33.105469 L 217.601562 29.191406 L 217.402344 29.191406 C 217.402344 29.191406 217.300781 29.191406 217.207031 29.191406 Z M 217.265625 28.816406 C 217.402344 28.816406 217.519531 28.828125 217.613281 28.828125 C 218.183594 28.828125 218.660156 28.628906 219.035156 28.234375 C 219.40625 27.839844 219.59375 27.324219 219.59375 26.683594 C 219.59375 26.3125 219.5 26.019531 219.300781 25.820312 C 219.101562 25.625 218.847656 25.53125 218.519531 25.53125 C 218.441406 25.53125 218.347656 25.53125 218.242188 25.53125 L 217.277344 28.816406 Z M 217.265625 28.816406 "/>
<path style=" stroke:none;fill-rule:nonzero;fill:rgb(0%,0%,0%);fill-opacity:1;" d="M 226.390625 33.28125 C 225.75 33.28125 225.226562 33.152344 224.832031 32.882812 C 224.433594 32.617188 224.132812 32.253906 223.933594 31.800781 C 223.734375 31.34375 223.632812 30.902344 223.632812 30.460938 C 223.632812 29.585938 223.875 28.699219 224.375 27.816406 C 224.875 26.929688 225.550781 26.21875 226.402344 25.683594 C 227.25 25.144531 228.089844 24.878906 228.917969 24.878906 C 229.40625 24.878906 229.859375 24.996094 230.289062 25.238281 C 230.71875 25.484375 231.058594 25.820312 231.300781 26.265625 C 231.546875 26.707031 231.664062 27.140625 231.664062 27.59375 C 231.664062 28.59375 231.347656 29.585938 230.707031 30.589844 C 230.082031 31.589844 229.359375 32.3125 228.566406 32.765625 C 227.972656 33.105469 227.238281 33.269531 226.367188 33.269531 Z M 228.71875 25.367188 C 228.402344 25.367188 228.148438 25.425781 227.925781 25.53125 C 227.707031 25.648438 227.484375 25.832031 227.238281 26.089844 C 227.007812 26.359375 226.761719 26.730469 226.519531 27.21875 C 226.273438 27.710938 226.039062 28.375 225.832031 29.222656 C 225.621094 30.0625 225.503906 30.773438 225.503906 31.332031 C 225.503906 31.8125 225.609375 32.171875 225.820312 32.429688 C 226.03125 32.671875 226.296875 32.800781 226.621094 32.800781 C 227.054688 32.800781 227.425781 32.660156 227.730469 32.371094 C 228.335938 31.800781 228.824219 30.960938 229.207031 29.855469 C 229.589844 28.746094 229.777344 27.769531 229.777344 26.90625 C 229.777344 26.371094 229.671875 25.972656 229.476562 25.730469 C 229.277344 25.484375 229.019531 25.367188 228.71875 25.367188 Z M 228.71875 25.367188 "/>
<path style=" stroke:none;fill-rule:nonzero;fill:rgb(0%,0%,0%);fill-opacity:1;" d="M 238.9375 33.082031 L 232.546875 33.082031 L 232.617188 32.859375 C 233.003906 32.859375 233.28125 32.789062 233.457031 32.640625 C 233.628906 32.488281 233.792969 32.160156 233.945312 31.636719 L 235.433594 26.484375 C 235.515625 26.207031 235.5625 25.984375 235.5625 25.820312 C 235.5625 25.660156 235.503906 25.542969 235.386719 25.449219 C 235.273438 25.355469 235.039062 25.296875 234.691406 25.285156 L 234.761719 25.066406 L 238.601562 25.066406 L 238.53125 25.285156 C 238.160156 25.285156 237.878906 25.378906 237.703125 25.53125 C 237.53125 25.683594 237.355469 26.007812 237.214844 26.496094 L 235.855469 31.207031 C 235.679688 31.800781 235.597656 32.171875 235.597656 32.300781 C 235.597656 32.382812 235.644531 32.453125 235.726562 32.523438 C 235.820312 32.59375 235.957031 32.628906 236.15625 32.628906 C 236.808594 32.628906 237.4375 32.476562 238.054688 32.171875 C 238.671875 31.871094 239.171875 31.425781 239.601562 30.832031 L 239.847656 30.832031 L 238.960938 33.082031 Z M 238.9375 33.082031 "/>
<path style=" stroke:none;fill-rule:nonzero;fill:rgb(0%,0%,0%);fill-opacity:1;" d="M 248.589844 24.890625 L 247.925781 27.605469 L 247.726562 27.605469 C 247.679688 27.171875 247.609375 26.835938 247.496094 26.578125 C 247.332031 26.207031 247.109375 25.925781 246.832031 25.71875 C 246.550781 25.519531 246.261719 25.414062 245.945312 25.414062 C 245.632812 25.414062 245.363281 25.53125 245.144531 25.765625 C 244.910156 25.996094 244.792969 26.265625 244.792969 26.554688 C 244.792969 26.847656 244.875 27.140625 245.039062 27.417969 C 245.203125 27.699219 245.574219 28.128906 246.167969 28.6875 C 246.644531 29.144531 246.960938 29.527344 247.121094 29.855469 C 247.285156 30.179688 247.367188 30.53125 247.367188 30.914062 C 247.367188 31.34375 247.25 31.742188 247.027344 32.101562 C 246.796875 32.464844 246.46875 32.742188 246.027344 32.941406 C 245.597656 33.140625 245.097656 33.246094 244.550781 33.246094 C 244.210938 33.246094 243.78125 33.199219 243.269531 33.09375 C 242.757812 32.988281 242.417969 32.941406 242.246094 32.941406 C 242.105469 32.941406 241.988281 32.964844 241.882812 33 C 241.777344 33.046875 241.640625 33.117188 241.488281 33.246094 L 241.253906 33.246094 L 241.964844 30.191406 L 242.1875 30.191406 C 242.234375 30.726562 242.347656 31.183594 242.511719 31.554688 C 242.675781 31.929688 242.910156 32.21875 243.222656 32.441406 C 243.523438 32.652344 243.886719 32.753906 244.269531 32.753906 C 244.65625 32.753906 244.980469 32.628906 245.246094 32.371094 C 245.503906 32.113281 245.644531 31.8125 245.644531 31.460938 C 245.644531 31.171875 245.574219 30.878906 245.421875 30.609375 C 245.269531 30.34375 244.933594 29.945312 244.410156 29.421875 C 243.886719 28.898438 243.523438 28.433594 243.316406 28.023438 C 243.175781 27.722656 243.09375 27.394531 243.09375 27.058594 C 243.09375 26.464844 243.328125 25.949219 243.792969 25.519531 C 244.257812 25.089844 244.875 24.867188 245.632812 24.867188 C 245.96875 24.867188 246.421875 24.949219 246.984375 25.097656 C 247.308594 25.191406 247.542969 25.238281 247.667969 25.238281 C 247.785156 25.238281 247.890625 25.214844 247.972656 25.167969 C 248.066406 25.121094 248.167969 25.019531 248.285156 24.878906 L 248.542969 24.878906 Z M 248.589844 24.890625 "/>
</g>
</svg>
