<?xml version="1.0" standalone="no"?>
<!DOCTYPE svg PUBLIC "-//W3C//DTD SVG 20010904//EN"
 "http://www.w3.org/TR/2001/REC-SVG-20010904/DTD/svg10.dtd">
<svg version="1.0" xmlns="http://www.w3.org/2000/svg"
 width="200.000000pt" height="200.000000pt" viewBox="0 0 200.000000 200.000000"
 preserveAspectRatio="xMidYMid meet">
<metadata>
Created by potrace 1.14, written by Peter Selinger 2001-2017
</metadata>
<g transform="translate(0.000000,200.000000) scale(0.100000,-0.100000)"
fill="#000000" stroke="none">
<path d="M1294 1119 c-41 -12 -102 -74 -115 -120 -26 -85 23 -159 105 -159 41
0 79 19 103 50 19 26 6 24 -27 -4 -40 -33 -83 -34 -115 -1 -31 30 -33 82 -6
140 24 52 50 74 95 82 42 7 66 -9 66 -43 0 -33 16 -30 24 4 4 15 9 34 11 42 4
12 -7 15 -53 16 -31 1 -71 -2 -88 -7z"/>
<path d="M653 1113 c23 -6 22 -22 -13 -136 -33 -112 -36 -117 -56 -117 -8 0
-14 -4 -14 -10 0 -13 101 -13 155 0 22 5 48 19 58 31 21 26 22 72 2 89 -21 17
-19 25 10 38 36 17 43 57 14 88 -20 22 -30 24 -98 23 -42 -1 -68 -3 -58 -6z
m125 -46 c2 -16 -2 -34 -8 -42 -12 -14 -68 -31 -76 -22 -3 2 1 25 8 51 12 44
14 47 43 44 25 -2 31 -8 33 -31z m-40 -99 c17 -17 15 -58 -5 -80 -13 -15 -83
-27 -83 -15 0 2 7 27 15 55 13 43 20 52 38 52 13 0 28 -5 35 -12z"/>
<path d="M943 1113 c23 -6 22 -18 -9 -126 -31 -109 -40 -127 -59 -127 -8 0
-15 -4 -15 -10 0 -6 40 -10 101 -10 l100 0 15 35 c21 52 17 64 -12 28 -22 -28
-32 -33 -70 -33 -54 0 -54 1 -15 130 22 74 33 98 52 107 21 11 16 13 -41 12
-36 -1 -57 -3 -47 -6z"/>
</g>
</svg>
