<?xml version="1.0" encoding="utf-8"?>
<!-- Generator: Adobe Illustrator 22.0.1, SVG Export Plug-In . SVG Version: 6.00 Build 0)  -->
<svg version="1.1" id="Layer_1" xmlns="http://www.w3.org/2000/svg" xmlns:xlink="http://www.w3.org/1999/xlink" x="0px" y="0px"
	 width="250.1px" height="250.1px" viewBox="0 0 250.1 250.1" enable-background="new 0 0 250.1 250.1" xml:space="preserve">
<path d="M125.04,0.05c-69.03,0-124.99,55.97-124.99,125c0,69.03,55.96,125,124.99,125c69.04,0,125-55.96,125.01-125
	C250.04,56.02,194.08,0.05,125.04,0.05 M125.05,246.29c-66.96,0-121.24-54.28-121.24-121.24S58.09,3.81,125.05,3.81
	c66.96,0,121.24,54.28,121.24,121.24S192.01,246.29,125.05,246.29 M125.05,27.14c-54.08,0-97.9,43.84-97.91,97.91
	c0.01,54.08,43.84,97.91,97.91,97.91c54.08,0,97.91-43.83,97.91-97.91C222.96,70.98,179.13,27.14,125.05,27.14 M125.05,219.19
	c-52,0-94.14-42.15-94.14-94.15S73.05,30.9,125.05,30.9c52,0,94.15,42.15,94.15,94.14S177.05,219.19,125.05,219.19 M87.43,170.51
	c14.41,10.1,7.46,24.35,19.87,30.06l-0.5,1.38c-9.93-3.15-30.23,4.22-36.06-9.29c0,0,13.56-0.63,15.11-2.19
	c-5.91-6.93-24.42-1.36-28.78-15.48c0,0,7.62,2.55,12.57,0.91c-1.82-6.34-24.7-2.86-22.77-17.85c0,0,5.29,4.58,12.39,5.46
	c-2-8.7-20.51-6.41-17.71-23.21c2.2,4.59,7.88,3.66,10.32,7.18c-1.47-9.06-14.77-7.67-11.18-27.14c0,0,3.79,6.1,7.38,8.92
	c1.65-7.01-11.09-10.41-5.02-26.05c0,0,2.22,5.4,4.92,9.11c3.44-7.78-7.94-12.62-0.55-23.67c0,0,1.4,5.41,3.65,7.65
	c2.68-4.71-5.7-16.68,2.36-21.13c0,0,0.49,3.84,2.19,7.65c1.38-3.51-2.52-12.85,4.73-17.3c0,0,0.26,7.31-0.18,12.56
	c6.62-4.74-0.42-15.58,12.57-16.75c0,13.02-7.78,9.21-8.97,15.25c0,0,2.59-0.13,7.15-2.77c-1.61,9.49-9.2,5.61-11.47,12.66
	c0,0,4.51-1.42,7.83-4.14c-2.91,12.02-10.29,10.98-11.9,15.84c0,0,5.34-1.97,7.29-3.92c0.73,9.68-9.91,11.44-10.32,17.68
	c0,0,4.66-1.89,8.25-5.05c2.92,10.4-10.76,14.91-7.95,22.59c0,0,5.49-5.84,7.23-8.38c3.22,14.89-7.96,16.57-4,25.14
	c0.79-3.14,4.85-7.17,6.19-11.29c8.26,13.11-5.03,19.14,1.58,25.38c0,0,3.17-8.85,3.52-13.84c9.45,9.45-0.96,23.26,5.7,27.8
	c0,0,2.61-8.63,2.16-14.82c13.11,9.83-0.13,25.35,13.38,28.54C86.99,183.66,88.67,175.49,87.43,170.51 M189.74,65.55
	c7.25,4.45,3.35,13.78,4.74,17.3c1.69-3.8,2.18-7.65,2.18-7.65c8.07,4.45-0.32,16.42,2.37,21.13c2.24-2.24,3.64-7.65,3.64-7.65
	c7.4,11.06-3.98,15.89-0.54,23.68c2.7-3.71,4.92-9.11,4.92-9.11c6.07,15.64-6.67,19.04-5.01,26.05c3.58-2.83,7.37-8.92,7.37-8.92
	c3.58,19.47-9.72,18.08-11.19,27.14c2.45-3.53,8.12-2.6,10.32-7.19c2.8,16.8-15.7,14.51-17.71,23.22
	c7.09-0.88,12.39-5.47,12.39-5.47c1.93,14.99-20.95,11.51-22.76,17.85c4.95,1.64,12.57-0.91,12.57-0.91
	c-4.35,14.12-22.86,8.55-28.78,15.48c1.55,1.55,15.12,2.19,15.12,2.19c-5.83,13.51-26.13,6.14-36.07,9.28l-0.49-1.38
	c12.41-5.71,5.46-19.96,19.86-30.06c-1.24,4.98,0.44,13.15-0.97,17.49c13.52-3.18,0.27-18.71,13.39-28.53
	c-0.46,6.19,2.15,14.82,2.15,14.82c6.66-4.54-3.74-18.36,5.71-27.8c0.35,4.99,3.52,13.84,3.52,13.84
	c6.61-6.23-6.68-12.27,1.57-25.38c1.34,4.12,5.41,8.15,6.2,11.29c3.96-8.56-7.23-10.24-4.01-25.13c1.74,2.54,7.23,8.38,7.23,8.38
	c2.8-7.67-10.87-12.18-7.95-22.59c3.59,3.16,8.26,5.05,8.26,5.05c-0.41-6.24-11.05-7.99-10.32-17.68c1.95,1.96,7.29,3.93,7.29,3.93
	c-1.62-4.86-8.99-3.82-11.91-15.84c3.32,2.72,7.84,4.14,7.84,4.14c-2.28-7.04-9.86-3.17-11.47-12.66c4.56,2.64,7.15,2.77,7.15,2.77
	c-1.19-6.04-8.97-2.23-8.97-15.25c12.99,1.17,5.95,12.01,12.56,16.76C189.48,72.85,189.74,65.55,189.74,65.55 M131.93,201.41
	l4.25,13.09l-11.13-8.09l-11.13,8.09l4.25-13.09l-11.13-8.09h13.76l4.25-13.09l4.25,13.09h13.76L131.93,201.41z M147.82,117.64
	h-45.53v-9.56h45.53V117.64z M79.74,91.37v60.88c0,0,13.19,25.9,45.31,25.9c32.12,0,45.3-25.9,45.3-25.9V91.37
	c0-2.83,3.23-2.83,3.23-2.83v-4.87h-21.55c0.21-10.46-4.75-15.84-4.75-15.84c0,8.91-6.35,20.67-6.35,20.67
	c-2.92-6.91,14.53-24.1-8.86-44.68c10.65,24.02-7.01,34.93-6.28,49.87c-9.49-9.5,18.55-29.11-0.73-58.09
	c0,22.29-18.85,30.09-18.85,38.78c0-7.9-6.14-15.61-6.14-15.61c0,10.22-4.47,13.36-4.47,22.26c0,0.9,0.07,1.78,0.2,2.64H76.51v4.87
	C76.51,88.55,79.74,88.55,79.74,91.37 M133.4,92.51c0,0,1.17,5.52,4,9.33h-3.66C131.6,96.94,133.4,92.51,133.4,92.51 M114.99,83.72
	c0,0,0.52,11.73,8.25,18.12h-5.06C110.06,94.3,114.99,83.72,114.99,83.72 M97.15,88.55c2.28,5.7,6.32,10.21,6.96,13.29h-5.45
	l2.04,4.14h48.7l2.03-4.14h-4.22c2.4-4.96,3.74-9.4,4.37-13.29H166c0,0-0.52,1.22-0.52,2.82v59.59c0,0-7.29,13.5-23.89,19.5
	l2.33-50.17h-10.85v52.36c-1.31,0.21-2.66,0.37-4.05,0.48v-52.84h-7.92v52.84c-1.39-0.11-2.75-0.26-4.05-0.48v-52.36h-10.85
	l2.33,50.17c-16.59-6-23.89-19.5-23.89-19.5V91.37c0-1.6-0.52-2.82-0.52-2.82H97.15z M119.95,38.34
	c6.64,11.29-9.78,23.26-12.91,30.9C100.64,53.6,117.95,47.14,119.95,38.34 M25.86,63.41l10.21,6.54l3.91-6.11l2.31,1.48l-5.67,8.86
	L24.1,66.16L25.86,63.41z M38.21,46.99l14.86,5.6l-2.23,2.55l-3.24-1.33L43.94,58l1.73,3.06l-2.16,2.48L36,49.51L38.21,46.99z
	 M45.2,52.85l-5.34-2.18l-0.03,0.03l2.84,5.05L45.2,52.85z M48.52,36.8l9.17,5.71l0.03-0.03l-3.93-10l3.57-2.91l9.42,11.51
	l-2.37,1.94l-6.68-8.16l-0.03,0.03l3.85,10.47l-1.95,1.6l-9.43-5.77l-0.03,0.03l6.61,8.08l-2.37,1.94l-9.42-11.51L48.52,36.8z
	 M68.83,22.67l12.2,10.17l-2.95,1.68l-2.62-2.32l-4.83,2.75l0.63,3.46l-2.86,1.63l-2.48-15.71L68.83,22.67z M73.52,30.51l-4.33-3.82
	l-0.04,0.02l1.02,5.7L73.52,30.51z M92.9,24.44c-0.63-1.33-1.54-2.64-3.27-2.47l-0.01-0.04c1.31-1.2,1.48-2.71,0.86-4.33
	c-0.88-2.26-3.23-3.16-5.54-2.26l-7.48,2.88L82.8,32.1l3.05-1.17l-2.09-5.42l3.05-1.18c1.53-0.59,2.32-0.18,3.12,1.21
	c0.72,1.24,0.99,2.28,1.77,3.14l3.05-1.17C94,27.06,93.35,25.44,92.9,24.44z M86.26,22.04l-3.34,1.29l-1.51-3.91l3.34-1.29
	c1.41-0.53,2.32-0.23,2.84,1.12C88.13,20.6,87.71,21.47,86.26,22.04z M180.51,35.05c0.6-1.34,1-2.88-0.26-4.09l0.02-0.04
	c1.76,0.21,3.02-0.64,3.84-2.17c1.15-2.14,0.29-4.51-1.89-5.68l-7.06-3.8l-7.05,13.1l2.88,1.55l2.76-5.12l2.88,1.55
	c1.44,0.78,1.64,1.64,1.12,3.16c-0.47,1.35-1.09,2.23-1.23,3.38l2.88,1.55C179.24,37.59,180.04,36.04,180.51,35.05z M178.01,28.45
	l-3.15-1.7l1.98-3.69l3.15,1.7c1.32,0.72,1.69,1.62,1,2.88C180.31,28.92,179.38,29.17,178.01,28.45z M118.76,22.08
	c-1.02,1.09-2.51,1.74-4.49,1.96c-2,0.21-3.6-0.11-4.8-0.96c-1.2-0.85-1.91-2.28-2.12-4.3l-0.98-9.2l3.25-0.35l0.98,9.2
	c0.25,2.13,1.17,3.13,3.39,2.89c2.24-0.22,2.96-1.24,2.73-3.54l-0.98-9.2l3.25-0.35l0.98,9.2
	C120.18,19.44,119.78,20.98,118.76,22.08z M126.13,8.21L132,18.39l0.04,0l0.34-9.98l3.06,0.1l-0.5,14.87l-3.27-0.11l-5.85-10.16
	h-0.04l-0.34,9.95l-3.06-0.1l0.5-14.87L126.13,8.21z M142.57,9.52l-1.99,14.74l-3.24-0.44l1.99-14.74L142.57,9.52z M146.56,25.35
	l-1.31-15.58l3.26,0.76l0.86,10.94l0.04,0.01l5.64-9.43l3.29,0.77l-8.18,13.37L146.56,25.35z M171.26,17.53l-0.96,2.58l-7.37-2.73
	l-1.11,2.99l6.76,2.51l-0.88,2.38l-6.76-2.51l-1.27,3.42l7.52,2.79l-0.96,2.58l-10.59-3.93l5.17-13.95L171.26,17.53z M193.65,35.89
	c1-1.52,0.17-2.66-1.04-3.55c-0.97-0.71-2.16-0.88-2.81,0.03c-0.58,0.84-0.27,1.28,0.77,2.63c0.38,0.47,0.87,1.07,1.48,1.81
	c1.59,1.69,2.59,4.04,1,6.1c-2.01,2.76-5.35,2.03-7.8,0.18c-2.68-1.97-4.22-5.07-2-7.99l2.55,1.87c-1.15,1.57-0.38,3.12,1.03,4.16
	c0.94,0.68,2.54,1.43,3.43,0.21c1.02-1.33-0.96-3.03-2.11-4.59c-1.53-1.79-2.65-3.89-1.08-6.03c1.81-2.48,5.01-1.91,7.15-0.34
	c3.04,2.25,3.74,4.98,1.98,7.39L193.65,35.89z M157.33,227.08c-0.57-1.73-1.98-1.78-3.43-1.38c-1.16,0.32-2.03,1.15-1.72,2.23
	c0.3,0.97,0.84,1,2.54,1.03c0.6-0.01,1.38-0.02,2.34-0.04c2.32-0.2,4.78,0.48,5.41,3c0.92,3.29-1.72,5.45-4.69,6.23
	c-3.2,0.88-6.6,0.17-7.51-3.39l3.05-0.85c0.52,1.88,2.21,2.23,3.91,1.77c1.12-0.31,2.7-1.11,2.3-2.56
	c-0.41-1.63-2.97-1.13-4.91-1.19c-2.35,0.09-4.7-0.33-5.41-2.89c-0.82-2.96,1.61-5.11,4.16-5.82c3.65-0.99,6.22,0.15,7.02,3.03
	L157.33,227.08z M204.48,39.25l-9.94,11.07l-2.43-2.18l9.94-11.07L204.48,39.25z M205.12,43.44l2.02-1.86l8.25,8.97l-2.02,1.86
	l-3.02-3.28l-8.92,8.21l-2.22-2.41l8.93-8.21L205.12,43.44z M216.92,52.35l2.1,3l-2.81,6.22l6.79-0.54l2.09,2.99l-10.67,0.73
	l-4.68,3.27l-1.88-2.68l4.75-3.32L216.92,52.35z M90.45,224.67l0.71-2.66l11.77,3.16l-0.71,2.65l-4.3-1.15l-3.14,11.71l-3.16-0.85
	l3.14-11.71L90.45,224.67z M116.5,227.1l-0.36,2.73l-7.79-1.04l-0.42,3.16l7.14,0.95l-0.34,2.52l-7.14-0.95l-0.48,3.61l7.95,1.06
	l-0.36,2.73l-11.19-1.49l1.96-14.75L116.5,227.1z M118.89,227.39l3.79-0.06l2.99,4.7l2.95-4.8l3.58-0.06l-4.65,7.18l5.31,7.68
	l-3.9,0.06l-3.33-5.09l-3.23,5.2l-3.67,0.06l5.06-7.88L118.89,227.39z M142.17,225.97l7.59,13.95l-3.36,0.48l-1.58-3.12l-5.51,0.78
	l-0.69,3.45l-3.26,0.46l3.49-15.52L142.17,225.97z M143.63,234.98l-2.62-5.14l-0.04,0.01l-1.15,5.67L143.63,234.98z"/>
</svg>
